<mxfile host="app.diagrams.net" modified="2023-11-08T03:08:22.678Z" agent="Mozilla/5.0 (Windows NT 10.0; Win64; x64) AppleWebKit/537.36 (KHTML, like Gecko) Chrome/119.0.0.0 Safari/537.36" etag="s7oMLB2X3T84Qi4lqcs1" version="22.0.8" type="google">
  <diagram name="Page-1" id="qXM89XTeMf5cefKTgedM">
    <mxGraphModel grid="1" page="1" gridSize="10" guides="1" tooltips="1" connect="1" arrows="1" fold="1" pageScale="1" pageWidth="827" pageHeight="1169" math="0" shadow="0">
      <root>
        <mxCell id="0" />
        <mxCell id="1" parent="0" />
        <mxCell id="WeFiFPSYRljII1s766pl-20" value="Cleaner" style="swimlane;fontStyle=1;align=center;verticalAlign=top;childLayout=stackLayout;horizontal=1;startSize=26;horizontalStack=0;resizeParent=1;resizeParentMax=0;resizeLast=0;collapsible=1;marginBottom=0;whiteSpace=wrap;html=1;" vertex="1" parent="1">
          <mxGeometry x="-520" y="310" width="1040" height="86" as="geometry" />
        </mxCell>
        <mxCell id="WeFiFPSYRljII1s766pl-22" value="-&amp;nbsp;CleanerID: Int" style="text;strokeColor=none;fillColor=none;align=left;verticalAlign=top;spacingLeft=4;spacingRight=4;overflow=hidden;rotatable=0;points=[[0,0.5],[1,0.5]];portConstraint=eastwest;whiteSpace=wrap;html=1;" vertex="1" parent="WeFiFPSYRljII1s766pl-20">
          <mxGeometry y="26" width="1040" height="26" as="geometry" />
        </mxCell>
        <mxCell id="WeFiFPSYRljII1s766pl-23" value="" style="line;strokeWidth=1;fillColor=none;align=left;verticalAlign=middle;spacingTop=-1;spacingLeft=3;spacingRight=3;rotatable=0;labelPosition=right;points=[];portConstraint=eastwest;strokeColor=inherit;" vertex="1" parent="WeFiFPSYRljII1s766pl-20">
          <mxGeometry y="52" width="1040" height="8" as="geometry" />
        </mxCell>
        <mxCell id="WeFiFPSYRljII1s766pl-24" value="-&amp;nbsp;Clean(): bool" style="text;strokeColor=none;fillColor=none;align=left;verticalAlign=top;spacingLeft=4;spacingRight=4;overflow=hidden;rotatable=0;points=[[0,0.5],[1,0.5]];portConstraint=eastwest;whiteSpace=wrap;html=1;" vertex="1" parent="WeFiFPSYRljII1s766pl-20">
          <mxGeometry y="60" width="1040" height="26" as="geometry" />
        </mxCell>
        <mxCell id="vIy7j_pHb_5L0HNnq9O6-1" value="User" style="swimlane;fontStyle=1;align=center;verticalAlign=top;childLayout=stackLayout;horizontal=1;startSize=26;horizontalStack=0;resizeParent=1;resizeParentMax=0;resizeLast=0;collapsible=1;marginBottom=0;whiteSpace=wrap;html=1;" vertex="1" parent="1">
          <mxGeometry x="-840" y="-200" width="160" height="216" as="geometry" />
        </mxCell>
        <mxCell id="vIy7j_pHb_5L0HNnq9O6-2" value="- UserName: string" style="text;strokeColor=none;fillColor=none;align=left;verticalAlign=top;spacingLeft=4;spacingRight=4;overflow=hidden;rotatable=0;points=[[0,0.5],[1,0.5]];portConstraint=eastwest;whiteSpace=wrap;html=1;" vertex="1" parent="vIy7j_pHb_5L0HNnq9O6-1">
          <mxGeometry y="26" width="160" height="26" as="geometry" />
        </mxCell>
        <mxCell id="vIy7j_pHb_5L0HNnq9O6-3" value="- PhoneNumber: Int" style="text;strokeColor=none;fillColor=none;align=left;verticalAlign=top;spacingLeft=4;spacingRight=4;overflow=hidden;rotatable=0;points=[[0,0.5],[1,0.5]];portConstraint=eastwest;whiteSpace=wrap;html=1;" vertex="1" parent="vIy7j_pHb_5L0HNnq9O6-1">
          <mxGeometry y="52" width="160" height="26" as="geometry" />
        </mxCell>
        <mxCell id="vIy7j_pHb_5L0HNnq9O6-33" value="- UserType: string" style="text;strokeColor=none;fillColor=none;align=left;verticalAlign=top;spacingLeft=4;spacingRight=4;overflow=hidden;rotatable=0;points=[[0,0.5],[1,0.5]];portConstraint=eastwest;whiteSpace=wrap;html=1;" vertex="1" parent="vIy7j_pHb_5L0HNnq9O6-1">
          <mxGeometry y="78" width="160" height="26" as="geometry" />
        </mxCell>
        <mxCell id="vIy7j_pHb_5L0HNnq9O6-5" value="" style="line;strokeWidth=1;fillColor=none;align=left;verticalAlign=middle;spacingTop=-1;spacingLeft=3;spacingRight=3;rotatable=0;labelPosition=right;points=[];portConstraint=eastwest;strokeColor=inherit;" vertex="1" parent="vIy7j_pHb_5L0HNnq9O6-1">
          <mxGeometry y="104" width="160" height="8" as="geometry" />
        </mxCell>
        <mxCell id="vIy7j_pHb_5L0HNnq9O6-7" value="+ GetName(): string" style="text;strokeColor=none;fillColor=none;align=left;verticalAlign=top;spacingLeft=4;spacingRight=4;overflow=hidden;rotatable=0;points=[[0,0.5],[1,0.5]];portConstraint=eastwest;whiteSpace=wrap;html=1;" vertex="1" parent="vIy7j_pHb_5L0HNnq9O6-1">
          <mxGeometry y="112" width="160" height="26" as="geometry" />
        </mxCell>
        <mxCell id="vIy7j_pHb_5L0HNnq9O6-8" value="+ GetPhoneNumber(): int" style="text;strokeColor=none;fillColor=none;align=left;verticalAlign=top;spacingLeft=4;spacingRight=4;overflow=hidden;rotatable=0;points=[[0,0.5],[1,0.5]];portConstraint=eastwest;whiteSpace=wrap;html=1;" vertex="1" parent="vIy7j_pHb_5L0HNnq9O6-1">
          <mxGeometry y="138" width="160" height="26" as="geometry" />
        </mxCell>
        <mxCell id="vIy7j_pHb_5L0HNnq9O6-34" value="+ GetUserID(): int" style="text;strokeColor=none;fillColor=none;align=left;verticalAlign=top;spacingLeft=4;spacingRight=4;overflow=hidden;rotatable=0;points=[[0,0.5],[1,0.5]];portConstraint=eastwest;whiteSpace=wrap;html=1;" vertex="1" parent="vIy7j_pHb_5L0HNnq9O6-1">
          <mxGeometry y="164" width="160" height="26" as="geometry" />
        </mxCell>
        <mxCell id="vIy7j_pHb_5L0HNnq9O6-6" value="+ GetType(): string" style="text;strokeColor=none;fillColor=none;align=left;verticalAlign=top;spacingLeft=4;spacingRight=4;overflow=hidden;rotatable=0;points=[[0,0.5],[1,0.5]];portConstraint=eastwest;whiteSpace=wrap;html=1;" vertex="1" parent="vIy7j_pHb_5L0HNnq9O6-1">
          <mxGeometry y="190" width="160" height="26" as="geometry" />
        </mxCell>
        <mxCell id="vIy7j_pHb_5L0HNnq9O6-11" value="Resort" style="swimlane;fontStyle=1;align=center;verticalAlign=top;childLayout=stackLayout;horizontal=1;startSize=26;horizontalStack=0;resizeParent=1;resizeParentMax=0;resizeLast=0;collapsible=1;marginBottom=0;whiteSpace=wrap;html=1;" vertex="1" parent="1">
          <mxGeometry x="-1100" y="112" width="160" height="112" as="geometry" />
        </mxCell>
        <mxCell id="vIy7j_pHb_5L0HNnq9O6-12" value="- ResortID:int" style="text;strokeColor=none;fillColor=none;align=left;verticalAlign=top;spacingLeft=4;spacingRight=4;overflow=hidden;rotatable=0;points=[[0,0.5],[1,0.5]];portConstraint=eastwest;whiteSpace=wrap;html=1;" vertex="1" parent="vIy7j_pHb_5L0HNnq9O6-11">
          <mxGeometry y="26" width="160" height="26" as="geometry" />
        </mxCell>
        <mxCell id="vIy7j_pHb_5L0HNnq9O6-85" value="- Address:string" style="text;strokeColor=none;fillColor=none;align=left;verticalAlign=top;spacingLeft=4;spacingRight=4;overflow=hidden;rotatable=0;points=[[0,0.5],[1,0.5]];portConstraint=eastwest;whiteSpace=wrap;html=1;" vertex="1" parent="vIy7j_pHb_5L0HNnq9O6-11">
          <mxGeometry y="52" width="160" height="26" as="geometry" />
        </mxCell>
        <mxCell id="vIy7j_pHb_5L0HNnq9O6-13" value="" style="line;strokeWidth=1;fillColor=none;align=left;verticalAlign=middle;spacingTop=-1;spacingLeft=3;spacingRight=3;rotatable=0;labelPosition=right;points=[];portConstraint=eastwest;strokeColor=inherit;" vertex="1" parent="vIy7j_pHb_5L0HNnq9O6-11">
          <mxGeometry y="78" width="160" height="8" as="geometry" />
        </mxCell>
        <mxCell id="vIy7j_pHb_5L0HNnq9O6-14" value="+ Resort" style="text;strokeColor=none;fillColor=none;align=left;verticalAlign=top;spacingLeft=4;spacingRight=4;overflow=hidden;rotatable=0;points=[[0,0.5],[1,0.5]];portConstraint=eastwest;whiteSpace=wrap;html=1;" vertex="1" parent="vIy7j_pHb_5L0HNnq9O6-11">
          <mxGeometry y="86" width="160" height="26" as="geometry" />
        </mxCell>
        <mxCell id="vIy7j_pHb_5L0HNnq9O6-21" value="Guest" style="swimlane;fontStyle=1;align=center;verticalAlign=top;childLayout=stackLayout;horizontal=1;startSize=26;horizontalStack=0;resizeParent=1;resizeParentMax=0;resizeLast=0;collapsible=1;marginBottom=0;whiteSpace=wrap;html=1;" vertex="1" parent="1">
          <mxGeometry x="-520" y="108" width="1040" height="164" as="geometry" />
        </mxCell>
        <mxCell id="vIy7j_pHb_5L0HNnq9O6-24" value="- GuestID: Int" style="text;strokeColor=none;fillColor=none;align=left;verticalAlign=top;spacingLeft=4;spacingRight=4;overflow=hidden;rotatable=0;points=[[0,0.5],[1,0.5]];portConstraint=eastwest;whiteSpace=wrap;html=1;" vertex="1" parent="vIy7j_pHb_5L0HNnq9O6-21">
          <mxGeometry y="26" width="1040" height="26" as="geometry" />
        </mxCell>
        <mxCell id="vIy7j_pHb_5L0HNnq9O6-25" value="" style="line;strokeWidth=1;fillColor=none;align=left;verticalAlign=middle;spacingTop=-1;spacingLeft=3;spacingRight=3;rotatable=0;labelPosition=right;points=[];portConstraint=eastwest;strokeColor=inherit;" vertex="1" parent="vIy7j_pHb_5L0HNnq9O6-21">
          <mxGeometry y="52" width="1040" height="8" as="geometry" />
        </mxCell>
        <mxCell id="vIy7j_pHb_5L0HNnq9O6-27" value="- onlineFoodReservation(SelectFood: List&amp;lt;string&amp;gt;, deliveredDate: int): Reservation" style="text;strokeColor=none;fillColor=none;align=left;verticalAlign=top;spacingLeft=4;spacingRight=4;overflow=hidden;rotatable=0;points=[[0,0.5],[1,0.5]];portConstraint=eastwest;whiteSpace=wrap;html=1;" vertex="1" parent="vIy7j_pHb_5L0HNnq9O6-21">
          <mxGeometry y="60" width="1040" height="26" as="geometry" />
        </mxCell>
        <mxCell id="-Pz-NLWRiqIHyBBIaTiA-2" value="- onlineFoodCheck(slectedRoomReservation: RoomReservation): bool" style="text;strokeColor=none;fillColor=none;align=left;verticalAlign=top;spacingLeft=4;spacingRight=4;overflow=hidden;rotatable=0;points=[[0,0.5],[1,0.5]];portConstraint=eastwest;whiteSpace=wrap;html=1;" vertex="1" parent="vIy7j_pHb_5L0HNnq9O6-21">
          <mxGeometry y="86" width="1040" height="26" as="geometry" />
        </mxCell>
        <mxCell id="-Pz-NLWRiqIHyBBIaTiA-3" value="- payCheck(slectedReservation: Reservation): bool" style="text;strokeColor=none;fillColor=none;align=left;verticalAlign=top;spacingLeft=4;spacingRight=4;overflow=hidden;rotatable=0;points=[[0,0.5],[1,0.5]];portConstraint=eastwest;whiteSpace=wrap;html=1;" vertex="1" parent="vIy7j_pHb_5L0HNnq9O6-21">
          <mxGeometry y="112" width="1040" height="26" as="geometry" />
        </mxCell>
        <mxCell id="Sj2HHbRkepg-0d2NE3xc-37" value="- navigateHotel(selectedRoom: Room): void" style="text;strokeColor=none;fillColor=none;align=left;verticalAlign=top;spacingLeft=4;spacingRight=4;overflow=hidden;rotatable=0;points=[[0,0.5],[1,0.5]];portConstraint=eastwest;whiteSpace=wrap;html=1;" vertex="1" parent="vIy7j_pHb_5L0HNnq9O6-21">
          <mxGeometry y="138" width="1040" height="26" as="geometry" />
        </mxCell>
        <mxCell id="vIy7j_pHb_5L0HNnq9O6-31" style="edgeStyle=orthogonalEdgeStyle;rounded=0;orthogonalLoop=1;jettySize=auto;html=1;exitX=0.25;exitY=0;exitDx=0;exitDy=0;entryX=1;entryY=0.5;entryDx=0;entryDy=0;endArrow=block;endFill=0;" edge="1" parent="1" source="vIy7j_pHb_5L0HNnq9O6-21" target="vIy7j_pHb_5L0HNnq9O6-2">
          <mxGeometry relative="1" as="geometry">
            <mxPoint x="-380" y="89" as="sourcePoint" />
            <Array as="points">
              <mxPoint x="-260" y="-161" />
            </Array>
          </mxGeometry>
        </mxCell>
        <mxCell id="vIy7j_pHb_5L0HNnq9O6-32" style="edgeStyle=orthogonalEdgeStyle;rounded=0;orthogonalLoop=1;jettySize=auto;html=1;exitX=0.25;exitY=0;exitDx=0;exitDy=0;entryX=1;entryY=0.5;entryDx=0;entryDy=0;endArrow=block;endFill=0;" edge="1" parent="1" source="WeFiFPSYRljII1s766pl-20" target="vIy7j_pHb_5L0HNnq9O6-2">
          <mxGeometry relative="1" as="geometry">
            <Array as="points">
              <mxPoint x="-260" y="280" />
              <mxPoint x="-580" y="280" />
              <mxPoint x="-580" y="-161" />
            </Array>
          </mxGeometry>
        </mxCell>
        <mxCell id="vIy7j_pHb_5L0HNnq9O6-39" value="Reservation" style="swimlane;fontStyle=1;align=center;verticalAlign=top;childLayout=stackLayout;horizontal=1;startSize=26;horizontalStack=0;resizeParent=1;resizeParentMax=0;resizeLast=0;collapsible=1;marginBottom=0;whiteSpace=wrap;html=1;" vertex="1" parent="1">
          <mxGeometry x="-920" y="280" width="160" height="268" as="geometry" />
        </mxCell>
        <mxCell id="vIy7j_pHb_5L0HNnq9O6-42" value="-&amp;nbsp;ReservationID: Int" style="text;strokeColor=none;fillColor=none;align=left;verticalAlign=top;spacingLeft=4;spacingRight=4;overflow=hidden;rotatable=0;points=[[0,0.5],[1,0.5]];portConstraint=eastwest;whiteSpace=wrap;html=1;" vertex="1" parent="vIy7j_pHb_5L0HNnq9O6-39">
          <mxGeometry y="26" width="160" height="26" as="geometry" />
        </mxCell>
        <mxCell id="vIy7j_pHb_5L0HNnq9O6-43" value="- ReservationType: string" style="text;strokeColor=none;fillColor=none;align=left;verticalAlign=top;spacingLeft=4;spacingRight=4;overflow=hidden;rotatable=0;points=[[0,0.5],[1,0.5]];portConstraint=eastwest;whiteSpace=wrap;html=1;" vertex="1" parent="vIy7j_pHb_5L0HNnq9O6-39">
          <mxGeometry y="52" width="160" height="26" as="geometry" />
        </mxCell>
        <mxCell id="vIy7j_pHb_5L0HNnq9O6-118" value="- StartDate: int" style="text;strokeColor=none;fillColor=none;align=left;verticalAlign=top;spacingLeft=4;spacingRight=4;overflow=hidden;rotatable=0;points=[[0,0.5],[1,0.5]];portConstraint=eastwest;whiteSpace=wrap;html=1;" vertex="1" parent="vIy7j_pHb_5L0HNnq9O6-39">
          <mxGeometry y="78" width="160" height="26" as="geometry" />
        </mxCell>
        <mxCell id="vIy7j_pHb_5L0HNnq9O6-117" value="- EndDate: int" style="text;strokeColor=none;fillColor=none;align=left;verticalAlign=top;spacingLeft=4;spacingRight=4;overflow=hidden;rotatable=0;points=[[0,0.5],[1,0.5]];portConstraint=eastwest;whiteSpace=wrap;html=1;" vertex="1" parent="vIy7j_pHb_5L0HNnq9O6-39">
          <mxGeometry y="104" width="160" height="26" as="geometry" />
        </mxCell>
        <mxCell id="-Pz-NLWRiqIHyBBIaTiA-4" value="- Price: int" style="text;strokeColor=none;fillColor=none;align=left;verticalAlign=top;spacingLeft=4;spacingRight=4;overflow=hidden;rotatable=0;points=[[0,0.5],[1,0.5]];portConstraint=eastwest;whiteSpace=wrap;html=1;" vertex="1" parent="vIy7j_pHb_5L0HNnq9O6-39">
          <mxGeometry y="130" width="160" height="26" as="geometry" />
        </mxCell>
        <mxCell id="vIy7j_pHb_5L0HNnq9O6-44" value="" style="line;strokeWidth=1;fillColor=none;align=left;verticalAlign=middle;spacingTop=-1;spacingLeft=3;spacingRight=3;rotatable=0;labelPosition=right;points=[];portConstraint=eastwest;strokeColor=inherit;" vertex="1" parent="vIy7j_pHb_5L0HNnq9O6-39">
          <mxGeometry y="156" width="160" height="8" as="geometry" />
        </mxCell>
        <mxCell id="vIy7j_pHb_5L0HNnq9O6-47" value="- GetReservationID(): int" style="text;strokeColor=none;fillColor=none;align=left;verticalAlign=top;spacingLeft=4;spacingRight=4;overflow=hidden;rotatable=0;points=[[0,0.5],[1,0.5]];portConstraint=eastwest;whiteSpace=wrap;html=1;" vertex="1" parent="vIy7j_pHb_5L0HNnq9O6-39">
          <mxGeometry y="164" width="160" height="26" as="geometry" />
        </mxCell>
        <mxCell id="vIy7j_pHb_5L0HNnq9O6-48" value="- GetType(): string" style="text;strokeColor=none;fillColor=none;align=left;verticalAlign=top;spacingLeft=4;spacingRight=4;overflow=hidden;rotatable=0;points=[[0,0.5],[1,0.5]];portConstraint=eastwest;whiteSpace=wrap;html=1;" vertex="1" parent="vIy7j_pHb_5L0HNnq9O6-39">
          <mxGeometry y="190" width="160" height="26" as="geometry" />
        </mxCell>
        <mxCell id="vIy7j_pHb_5L0HNnq9O6-115" value="- GetStartDate(): int" style="text;strokeColor=none;fillColor=none;align=left;verticalAlign=top;spacingLeft=4;spacingRight=4;overflow=hidden;rotatable=0;points=[[0,0.5],[1,0.5]];portConstraint=eastwest;whiteSpace=wrap;html=1;" vertex="1" parent="vIy7j_pHb_5L0HNnq9O6-39">
          <mxGeometry y="216" width="160" height="26" as="geometry" />
        </mxCell>
        <mxCell id="vIy7j_pHb_5L0HNnq9O6-116" value="- GetEndDate(): int" style="text;strokeColor=none;fillColor=none;align=left;verticalAlign=top;spacingLeft=4;spacingRight=4;overflow=hidden;rotatable=0;points=[[0,0.5],[1,0.5]];portConstraint=eastwest;whiteSpace=wrap;html=1;" vertex="1" parent="vIy7j_pHb_5L0HNnq9O6-39">
          <mxGeometry y="242" width="160" height="26" as="geometry" />
        </mxCell>
        <mxCell id="vIy7j_pHb_5L0HNnq9O6-49" value="Facility" style="swimlane;fontStyle=1;align=center;verticalAlign=top;childLayout=stackLayout;horizontal=1;startSize=26;horizontalStack=0;resizeParent=1;resizeParentMax=0;resizeLast=0;collapsible=1;marginBottom=0;whiteSpace=wrap;html=1;" vertex="1" parent="1">
          <mxGeometry x="-1060" y="1194.1200000000001" width="160" height="268" as="geometry" />
        </mxCell>
        <mxCell id="vIy7j_pHb_5L0HNnq9O6-50" value="- Name: string" style="text;strokeColor=none;fillColor=none;align=left;verticalAlign=top;spacingLeft=4;spacingRight=4;overflow=hidden;rotatable=0;points=[[0,0.5],[1,0.5]];portConstraint=eastwest;whiteSpace=wrap;html=1;" vertex="1" parent="vIy7j_pHb_5L0HNnq9O6-49">
          <mxGeometry y="26" width="160" height="26" as="geometry" />
        </mxCell>
        <mxCell id="vIy7j_pHb_5L0HNnq9O6-51" value="- FacilityLocation: string" style="text;strokeColor=none;fillColor=none;align=left;verticalAlign=top;spacingLeft=4;spacingRight=4;overflow=hidden;rotatable=0;points=[[0,0.5],[1,0.5]];portConstraint=eastwest;whiteSpace=wrap;html=1;" vertex="1" parent="vIy7j_pHb_5L0HNnq9O6-49">
          <mxGeometry y="52" width="160" height="26" as="geometry" />
        </mxCell>
        <mxCell id="vIy7j_pHb_5L0HNnq9O6-52" value="-&amp;nbsp;FacilityID: int" style="text;strokeColor=none;fillColor=none;align=left;verticalAlign=top;spacingLeft=4;spacingRight=4;overflow=hidden;rotatable=0;points=[[0,0.5],[1,0.5]];portConstraint=eastwest;whiteSpace=wrap;html=1;" vertex="1" parent="vIy7j_pHb_5L0HNnq9O6-49">
          <mxGeometry y="78" width="160" height="26" as="geometry" />
        </mxCell>
        <mxCell id="vIy7j_pHb_5L0HNnq9O6-73" value="- FacilityType: string" style="text;strokeColor=none;fillColor=none;align=left;verticalAlign=top;spacingLeft=4;spacingRight=4;overflow=hidden;rotatable=0;points=[[0,0.5],[1,0.5]];portConstraint=eastwest;whiteSpace=wrap;html=1;" vertex="1" parent="vIy7j_pHb_5L0HNnq9O6-49">
          <mxGeometry y="104" width="160" height="26" as="geometry" />
        </mxCell>
        <mxCell id="vIy7j_pHb_5L0HNnq9O6-53" value="- Capacitance: int" style="text;strokeColor=none;fillColor=none;align=left;verticalAlign=top;spacingLeft=4;spacingRight=4;overflow=hidden;rotatable=0;points=[[0,0.5],[1,0.5]];portConstraint=eastwest;whiteSpace=wrap;html=1;" vertex="1" parent="vIy7j_pHb_5L0HNnq9O6-49">
          <mxGeometry y="130" width="160" height="26" as="geometry" />
        </mxCell>
        <mxCell id="vIy7j_pHb_5L0HNnq9O6-54" value="" style="line;strokeWidth=1;fillColor=none;align=left;verticalAlign=middle;spacingTop=-1;spacingLeft=3;spacingRight=3;rotatable=0;labelPosition=right;points=[];portConstraint=eastwest;strokeColor=inherit;" vertex="1" parent="vIy7j_pHb_5L0HNnq9O6-49">
          <mxGeometry y="156" width="160" height="8" as="geometry" />
        </mxCell>
        <mxCell id="vIy7j_pHb_5L0HNnq9O6-55" value="- GetName(): string" style="text;strokeColor=none;fillColor=none;align=left;verticalAlign=top;spacingLeft=4;spacingRight=4;overflow=hidden;rotatable=0;points=[[0,0.5],[1,0.5]];portConstraint=eastwest;whiteSpace=wrap;html=1;" vertex="1" parent="vIy7j_pHb_5L0HNnq9O6-49">
          <mxGeometry y="164" width="160" height="26" as="geometry" />
        </mxCell>
        <mxCell id="vIy7j_pHb_5L0HNnq9O6-56" value="- GetPhoneNumber(): int" style="text;strokeColor=none;fillColor=none;align=left;verticalAlign=top;spacingLeft=4;spacingRight=4;overflow=hidden;rotatable=0;points=[[0,0.5],[1,0.5]];portConstraint=eastwest;whiteSpace=wrap;html=1;" vertex="1" parent="vIy7j_pHb_5L0HNnq9O6-49">
          <mxGeometry y="190" width="160" height="26" as="geometry" />
        </mxCell>
        <mxCell id="vIy7j_pHb_5L0HNnq9O6-57" value="- GetUserID(): int" style="text;strokeColor=none;fillColor=none;align=left;verticalAlign=top;spacingLeft=4;spacingRight=4;overflow=hidden;rotatable=0;points=[[0,0.5],[1,0.5]];portConstraint=eastwest;whiteSpace=wrap;html=1;" vertex="1" parent="vIy7j_pHb_5L0HNnq9O6-49">
          <mxGeometry y="216" width="160" height="26" as="geometry" />
        </mxCell>
        <mxCell id="vIy7j_pHb_5L0HNnq9O6-58" value="- GetType(): string" style="text;strokeColor=none;fillColor=none;align=left;verticalAlign=top;spacingLeft=4;spacingRight=4;overflow=hidden;rotatable=0;points=[[0,0.5],[1,0.5]];portConstraint=eastwest;whiteSpace=wrap;html=1;" vertex="1" parent="vIy7j_pHb_5L0HNnq9O6-49">
          <mxGeometry y="242" width="160" height="26" as="geometry" />
        </mxCell>
        <mxCell id="vIy7j_pHb_5L0HNnq9O6-67" value="Room" style="swimlane;fontStyle=1;align=center;verticalAlign=top;childLayout=stackLayout;horizontal=1;startSize=26;horizontalStack=0;resizeParent=1;resizeParentMax=0;resizeLast=0;collapsible=1;marginBottom=0;whiteSpace=wrap;html=1;" vertex="1" parent="1">
          <mxGeometry x="-507.55" y="1504.1200000000001" width="160" height="86" as="geometry" />
        </mxCell>
        <mxCell id="pluPpm19IUilGA6iMKDm-1" value="- RoomNumber: int" style="text;strokeColor=none;fillColor=none;align=left;verticalAlign=top;spacingLeft=4;spacingRight=4;overflow=hidden;rotatable=0;points=[[0,0.5],[1,0.5]];portConstraint=eastwest;whiteSpace=wrap;html=1;" vertex="1" parent="vIy7j_pHb_5L0HNnq9O6-67">
          <mxGeometry y="26" width="160" height="26" as="geometry" />
        </mxCell>
        <mxCell id="vIy7j_pHb_5L0HNnq9O6-69" value="" style="line;strokeWidth=1;fillColor=none;align=left;verticalAlign=middle;spacingTop=-1;spacingLeft=3;spacingRight=3;rotatable=0;labelPosition=right;points=[];portConstraint=eastwest;strokeColor=inherit;" vertex="1" parent="vIy7j_pHb_5L0HNnq9O6-67">
          <mxGeometry y="52" width="160" height="8" as="geometry" />
        </mxCell>
        <mxCell id="vIy7j_pHb_5L0HNnq9O6-70" value="&amp;nbsp;" style="text;strokeColor=none;fillColor=none;align=left;verticalAlign=top;spacingLeft=4;spacingRight=4;overflow=hidden;rotatable=0;points=[[0,0.5],[1,0.5]];portConstraint=eastwest;whiteSpace=wrap;html=1;" vertex="1" parent="vIy7j_pHb_5L0HNnq9O6-67">
          <mxGeometry y="60" width="160" height="26" as="geometry" />
        </mxCell>
        <mxCell id="vIy7j_pHb_5L0HNnq9O6-71" style="edgeStyle=orthogonalEdgeStyle;rounded=0;orthogonalLoop=1;jettySize=auto;html=1;exitX=0.5;exitY=0;exitDx=0;exitDy=0;endArrow=block;endFill=0;" edge="1" parent="1" source="vIy7j_pHb_5L0HNnq9O6-67" target="vIy7j_pHb_5L0HNnq9O6-49">
          <mxGeometry relative="1" as="geometry">
            <Array as="points">
              <mxPoint x="-428" y="1454.17" />
            </Array>
          </mxGeometry>
        </mxCell>
        <mxCell id="vIy7j_pHb_5L0HNnq9O6-81" value="ResortManagementSystem" style="swimlane;fontStyle=1;align=center;verticalAlign=top;childLayout=stackLayout;horizontal=1;startSize=26;horizontalStack=0;resizeParent=1;resizeParentMax=0;resizeLast=0;collapsible=1;marginBottom=0;whiteSpace=wrap;html=1;" vertex="1" parent="1">
          <mxGeometry x="-1400" y="90" width="160" height="86" as="geometry" />
        </mxCell>
        <mxCell id="vIy7j_pHb_5L0HNnq9O6-82" value="&amp;nbsp;" style="text;strokeColor=none;fillColor=none;align=left;verticalAlign=top;spacingLeft=4;spacingRight=4;overflow=hidden;rotatable=0;points=[[0,0.5],[1,0.5]];portConstraint=eastwest;whiteSpace=wrap;html=1;" vertex="1" parent="vIy7j_pHb_5L0HNnq9O6-81">
          <mxGeometry y="26" width="160" height="26" as="geometry" />
        </mxCell>
        <mxCell id="vIy7j_pHb_5L0HNnq9O6-83" value="" style="line;strokeWidth=1;fillColor=none;align=left;verticalAlign=middle;spacingTop=-1;spacingLeft=3;spacingRight=3;rotatable=0;labelPosition=right;points=[];portConstraint=eastwest;strokeColor=inherit;" vertex="1" parent="vIy7j_pHb_5L0HNnq9O6-81">
          <mxGeometry y="52" width="160" height="8" as="geometry" />
        </mxCell>
        <mxCell id="vIy7j_pHb_5L0HNnq9O6-84" value="&amp;nbsp;" style="text;strokeColor=none;fillColor=none;align=left;verticalAlign=top;spacingLeft=4;spacingRight=4;overflow=hidden;rotatable=0;points=[[0,0.5],[1,0.5]];portConstraint=eastwest;whiteSpace=wrap;html=1;" vertex="1" parent="vIy7j_pHb_5L0HNnq9O6-81">
          <mxGeometry y="60" width="160" height="26" as="geometry" />
        </mxCell>
        <mxCell id="vIy7j_pHb_5L0HNnq9O6-111" style="edgeStyle=orthogonalEdgeStyle;rounded=0;orthogonalLoop=1;jettySize=auto;html=1;entryX=1;entryY=0.25;entryDx=0;entryDy=0;endArrow=open;endFill=0;exitX=1.002;exitY=0.736;exitDx=0;exitDy=0;exitPerimeter=0;" edge="1" parent="1" source="fmxeUPtrMbGE5izU7_tt-8" target="vIy7j_pHb_5L0HNnq9O6-67">
          <mxGeometry relative="1" as="geometry">
            <mxPoint x="-350.4300000000003" y="1294.2979999999998" as="sourcePoint" />
            <mxPoint x="-347.55" y="1695.6200000000001" as="targetPoint" />
            <Array as="points">
              <mxPoint x="240" y="1402.17" />
              <mxPoint x="240" y="1526.17" />
            </Array>
          </mxGeometry>
        </mxCell>
        <mxCell id="vIy7j_pHb_5L0HNnq9O6-113" value="1" style="edgeLabel;html=1;align=center;verticalAlign=middle;resizable=0;points=[];" connectable="0" vertex="1" parent="vIy7j_pHb_5L0HNnq9O6-111">
          <mxGeometry x="0.8462" y="-1" relative="1" as="geometry">
            <mxPoint x="-54" as="offset" />
          </mxGeometry>
        </mxCell>
        <mxCell id="vIy7j_pHb_5L0HNnq9O6-114" value="Contains" style="edgeLabel;html=1;align=center;verticalAlign=middle;resizable=0;points=[];" connectable="0" vertex="1" parent="vIy7j_pHb_5L0HNnq9O6-111">
          <mxGeometry x="-0.0031" y="2" relative="1" as="geometry">
            <mxPoint as="offset" />
          </mxGeometry>
        </mxCell>
        <mxCell id="fmxeUPtrMbGE5izU7_tt-16" value="1" style="edgeLabel;html=1;align=center;verticalAlign=middle;resizable=0;points=[];" connectable="0" vertex="1" parent="vIy7j_pHb_5L0HNnq9O6-111">
          <mxGeometry x="-0.9115" y="-3" relative="1" as="geometry">
            <mxPoint x="-47" as="offset" />
          </mxGeometry>
        </mxCell>
        <mxCell id="vIy7j_pHb_5L0HNnq9O6-128" style="edgeStyle=orthogonalEdgeStyle;rounded=0;orthogonalLoop=1;jettySize=auto;html=1;exitX=1;exitY=0.5;exitDx=0;exitDy=0;entryX=0;entryY=0.158;entryDx=0;entryDy=0;entryPerimeter=0;" edge="1" parent="1" source="vIy7j_pHb_5L0HNnq9O6-82" target="vIy7j_pHb_5L0HNnq9O6-11">
          <mxGeometry relative="1" as="geometry" />
        </mxCell>
        <mxCell id="vIy7j_pHb_5L0HNnq9O6-129" value="1" style="edgeLabel;html=1;align=center;verticalAlign=middle;resizable=0;points=[];" connectable="0" vertex="1" parent="vIy7j_pHb_5L0HNnq9O6-128">
          <mxGeometry x="-0.922" y="3" relative="1" as="geometry">
            <mxPoint as="offset" />
          </mxGeometry>
        </mxCell>
        <mxCell id="vIy7j_pHb_5L0HNnq9O6-130" value="1..*" style="edgeLabel;html=1;align=center;verticalAlign=middle;resizable=0;points=[];" connectable="0" vertex="1" parent="vIy7j_pHb_5L0HNnq9O6-128">
          <mxGeometry x="0.8249" y="-1" relative="1" as="geometry">
            <mxPoint y="-11" as="offset" />
          </mxGeometry>
        </mxCell>
        <mxCell id="vIy7j_pHb_5L0HNnq9O6-131" value="Manages" style="edgeLabel;html=1;align=center;verticalAlign=middle;resizable=0;points=[];" connectable="0" vertex="1" parent="vIy7j_pHb_5L0HNnq9O6-128">
          <mxGeometry x="-0.363" y="1" relative="1" as="geometry">
            <mxPoint as="offset" />
          </mxGeometry>
        </mxCell>
        <mxCell id="vIy7j_pHb_5L0HNnq9O6-149" style="edgeStyle=orthogonalEdgeStyle;rounded=0;orthogonalLoop=1;jettySize=auto;html=1;exitX=1;exitY=0.5;exitDx=0;exitDy=0;" edge="1" parent="1" source="vIy7j_pHb_5L0HNnq9O6-12" target="vIy7j_pHb_5L0HNnq9O6-21">
          <mxGeometry relative="1" as="geometry">
            <Array as="points">
              <mxPoint x="-610" y="151" />
              <mxPoint x="-610" y="151" />
            </Array>
          </mxGeometry>
        </mxCell>
        <mxCell id="pluPpm19IUilGA6iMKDm-11" value="1..*" style="edgeLabel;html=1;align=center;verticalAlign=middle;resizable=0;points=[];" connectable="0" vertex="1" parent="vIy7j_pHb_5L0HNnq9O6-149">
          <mxGeometry x="-0.888" y="1" relative="1" as="geometry">
            <mxPoint x="1" as="offset" />
          </mxGeometry>
        </mxCell>
        <mxCell id="pluPpm19IUilGA6iMKDm-12" value="1..*" style="edgeLabel;html=1;align=center;verticalAlign=middle;resizable=0;points=[];" connectable="0" vertex="1" parent="vIy7j_pHb_5L0HNnq9O6-149">
          <mxGeometry x="0.8467" y="3" relative="1" as="geometry">
            <mxPoint x="1" as="offset" />
          </mxGeometry>
        </mxCell>
        <mxCell id="pluPpm19IUilGA6iMKDm-13" value="Have" style="edgeLabel;html=1;align=center;verticalAlign=middle;resizable=0;points=[];" connectable="0" vertex="1" parent="vIy7j_pHb_5L0HNnq9O6-149">
          <mxGeometry x="-0.0813" y="2" relative="1" as="geometry">
            <mxPoint as="offset" />
          </mxGeometry>
        </mxCell>
        <mxCell id="vIy7j_pHb_5L0HNnq9O6-150" style="edgeStyle=orthogonalEdgeStyle;rounded=0;orthogonalLoop=1;jettySize=auto;html=1;exitX=1;exitY=0.5;exitDx=0;exitDy=0;entryX=0;entryY=0.5;entryDx=0;entryDy=0;" edge="1" parent="1" source="vIy7j_pHb_5L0HNnq9O6-85" target="WeFiFPSYRljII1s766pl-22">
          <mxGeometry relative="1" as="geometry">
            <Array as="points">
              <mxPoint x="-940" y="170" />
              <mxPoint x="-600" y="170" />
              <mxPoint x="-600" y="349" />
            </Array>
          </mxGeometry>
        </mxCell>
        <mxCell id="pluPpm19IUilGA6iMKDm-8" value="1..*" style="edgeLabel;html=1;align=center;verticalAlign=middle;resizable=0;points=[];" connectable="0" vertex="1" parent="vIy7j_pHb_5L0HNnq9O6-150">
          <mxGeometry x="-0.7862" y="2" relative="1" as="geometry">
            <mxPoint x="-33" as="offset" />
          </mxGeometry>
        </mxCell>
        <mxCell id="pluPpm19IUilGA6iMKDm-9" value="1..*" style="edgeLabel;html=1;align=center;verticalAlign=middle;resizable=0;points=[];" connectable="0" vertex="1" parent="vIy7j_pHb_5L0HNnq9O6-150">
          <mxGeometry x="0.8458" y="1" relative="1" as="geometry">
            <mxPoint x="17" as="offset" />
          </mxGeometry>
        </mxCell>
        <mxCell id="pluPpm19IUilGA6iMKDm-10" value="Have" style="edgeLabel;html=1;align=center;verticalAlign=middle;resizable=0;points=[];" connectable="0" vertex="1" parent="vIy7j_pHb_5L0HNnq9O6-150">
          <mxGeometry x="-0.2763" y="-3" relative="1" as="geometry">
            <mxPoint x="1" as="offset" />
          </mxGeometry>
        </mxCell>
        <mxCell id="vIy7j_pHb_5L0HNnq9O6-151" style="edgeStyle=orthogonalEdgeStyle;rounded=0;orthogonalLoop=1;jettySize=auto;html=1;endArrow=open;endFill=0;entryX=-0.002;entryY=0.94;entryDx=0;entryDy=0;entryPerimeter=0;exitX=0.562;exitY=1.019;exitDx=0;exitDy=0;exitPerimeter=0;" edge="1" parent="1" target="Sj2HHbRkepg-0d2NE3xc-55" source="vIy7j_pHb_5L0HNnq9O6-14">
          <mxGeometry relative="1" as="geometry">
            <Array as="points">
              <mxPoint x="-1010" y="840" />
              <mxPoint x="-800" y="840" />
              <mxPoint x="-800" y="1124" />
            </Array>
            <mxPoint x="-590" y="720" as="targetPoint" />
            <mxPoint x="-1010" y="240" as="sourcePoint" />
          </mxGeometry>
        </mxCell>
        <mxCell id="pluPpm19IUilGA6iMKDm-5" value="Has" style="edgeLabel;html=1;align=center;verticalAlign=middle;resizable=0;points=[];" connectable="0" vertex="1" parent="vIy7j_pHb_5L0HNnq9O6-151">
          <mxGeometry x="0.3421" y="2" relative="1" as="geometry">
            <mxPoint x="8" y="2" as="offset" />
          </mxGeometry>
        </mxCell>
        <mxCell id="pluPpm19IUilGA6iMKDm-6" value="1..*" style="edgeLabel;html=1;align=center;verticalAlign=middle;resizable=0;points=[];" connectable="0" vertex="1" parent="vIy7j_pHb_5L0HNnq9O6-151">
          <mxGeometry x="0.8876" y="1" relative="1" as="geometry">
            <mxPoint x="36" y="1" as="offset" />
          </mxGeometry>
        </mxCell>
        <mxCell id="pluPpm19IUilGA6iMKDm-7" value="1" style="edgeLabel;html=1;align=center;verticalAlign=middle;resizable=0;points=[];" connectable="0" vertex="1" parent="vIy7j_pHb_5L0HNnq9O6-151">
          <mxGeometry x="-0.8909" y="5" relative="1" as="geometry">
            <mxPoint x="-5" y="-51" as="offset" />
          </mxGeometry>
        </mxCell>
        <mxCell id="vIy7j_pHb_5L0HNnq9O6-156" style="edgeStyle=orthogonalEdgeStyle;rounded=0;orthogonalLoop=1;jettySize=auto;html=1;entryX=0;entryY=0.5;entryDx=0;entryDy=0;endArrow=open;endFill=0;" edge="1" parent="1" target="pluPpm19IUilGA6iMKDm-1">
          <mxGeometry relative="1" as="geometry">
            <mxPoint x="-1090" y="230" as="sourcePoint" />
            <mxPoint x="-505.6300000000001" y="1519.6799999999998" as="targetPoint" />
            <Array as="points">
              <mxPoint x="-1090" y="225" />
              <mxPoint x="-1090" y="1380" />
            </Array>
          </mxGeometry>
        </mxCell>
        <mxCell id="pluPpm19IUilGA6iMKDm-2" value="1" style="edgeLabel;html=1;align=center;verticalAlign=middle;resizable=0;points=[];" connectable="0" vertex="1" parent="vIy7j_pHb_5L0HNnq9O6-156">
          <mxGeometry x="-0.9852" relative="1" as="geometry">
            <mxPoint as="offset" />
          </mxGeometry>
        </mxCell>
        <mxCell id="pluPpm19IUilGA6iMKDm-3" value="1..*" style="edgeLabel;html=1;align=center;verticalAlign=middle;resizable=0;points=[];" connectable="0" vertex="1" parent="vIy7j_pHb_5L0HNnq9O6-156">
          <mxGeometry x="0.9498" y="1" relative="1" as="geometry">
            <mxPoint x="14" y="240" as="offset" />
          </mxGeometry>
        </mxCell>
        <mxCell id="Sj2HHbRkepg-0d2NE3xc-8" value="Has" style="edgeLabel;html=1;align=center;verticalAlign=middle;resizable=0;points=[];" connectable="0" vertex="1" parent="vIy7j_pHb_5L0HNnq9O6-156">
          <mxGeometry x="0.5311" y="1" relative="1" as="geometry">
            <mxPoint as="offset" />
          </mxGeometry>
        </mxCell>
        <mxCell id="Sj2HHbRkepg-0d2NE3xc-25" style="edgeStyle=orthogonalEdgeStyle;rounded=0;orthogonalLoop=1;jettySize=auto;html=1;exitX=0.25;exitY=0;exitDx=0;exitDy=0;entryX=1;entryY=0.5;entryDx=0;entryDy=0;endArrow=blockThin;endFill=0;" edge="1" parent="1" source="Sj2HHbRkepg-0d2NE3xc-21" target="vIy7j_pHb_5L0HNnq9O6-2">
          <mxGeometry relative="1" as="geometry">
            <Array as="points">
              <mxPoint x="-260" y="420" />
              <mxPoint x="-580" y="420" />
              <mxPoint x="-580" y="-161" />
            </Array>
          </mxGeometry>
        </mxCell>
        <mxCell id="Sj2HHbRkepg-0d2NE3xc-21" value="Maintancer" style="swimlane;fontStyle=1;align=center;verticalAlign=top;childLayout=stackLayout;horizontal=1;startSize=26;horizontalStack=0;resizeParent=1;resizeParentMax=0;resizeLast=0;collapsible=1;marginBottom=0;whiteSpace=wrap;html=1;" vertex="1" parent="1">
          <mxGeometry x="-520" y="440" width="1040" height="86" as="geometry" />
        </mxCell>
        <mxCell id="Sj2HHbRkepg-0d2NE3xc-22" value="-&amp;nbsp;MaintancerID: Int" style="text;strokeColor=none;fillColor=none;align=left;verticalAlign=top;spacingLeft=4;spacingRight=4;overflow=hidden;rotatable=0;points=[[0,0.5],[1,0.5]];portConstraint=eastwest;whiteSpace=wrap;html=1;" vertex="1" parent="Sj2HHbRkepg-0d2NE3xc-21">
          <mxGeometry y="26" width="1040" height="26" as="geometry" />
        </mxCell>
        <mxCell id="Sj2HHbRkepg-0d2NE3xc-23" value="" style="line;strokeWidth=1;fillColor=none;align=left;verticalAlign=middle;spacingTop=-1;spacingLeft=3;spacingRight=3;rotatable=0;labelPosition=right;points=[];portConstraint=eastwest;strokeColor=inherit;" vertex="1" parent="Sj2HHbRkepg-0d2NE3xc-21">
          <mxGeometry y="52" width="1040" height="8" as="geometry" />
        </mxCell>
        <mxCell id="Sj2HHbRkepg-0d2NE3xc-24" value="-&amp;nbsp;Maintance(): bool" style="text;strokeColor=none;fillColor=none;align=left;verticalAlign=top;spacingLeft=4;spacingRight=4;overflow=hidden;rotatable=0;points=[[0,0.5],[1,0.5]];portConstraint=eastwest;whiteSpace=wrap;html=1;" vertex="1" parent="Sj2HHbRkepg-0d2NE3xc-21">
          <mxGeometry y="60" width="1040" height="26" as="geometry" />
        </mxCell>
        <mxCell id="Sj2HHbRkepg-0d2NE3xc-26" style="edgeStyle=orthogonalEdgeStyle;rounded=0;orthogonalLoop=1;jettySize=auto;html=1;exitX=1;exitY=0.5;exitDx=0;exitDy=0;entryX=0;entryY=0.5;entryDx=0;entryDy=0;" edge="1" parent="1" source="vIy7j_pHb_5L0HNnq9O6-85" target="Sj2HHbRkepg-0d2NE3xc-22">
          <mxGeometry relative="1" as="geometry">
            <Array as="points">
              <mxPoint x="-940" y="190" />
              <mxPoint x="-620" y="190" />
              <mxPoint x="-620" y="479" />
            </Array>
          </mxGeometry>
        </mxCell>
        <mxCell id="Sj2HHbRkepg-0d2NE3xc-27" value="1..*" style="edgeLabel;html=1;align=center;verticalAlign=middle;resizable=0;points=[];" connectable="0" vertex="1" parent="Sj2HHbRkepg-0d2NE3xc-26">
          <mxGeometry x="-0.89" relative="1" as="geometry">
            <mxPoint as="offset" />
          </mxGeometry>
        </mxCell>
        <mxCell id="Sj2HHbRkepg-0d2NE3xc-28" value="Have" style="edgeLabel;html=1;align=center;verticalAlign=middle;resizable=0;points=[];" connectable="0" vertex="1" parent="Sj2HHbRkepg-0d2NE3xc-26">
          <mxGeometry x="-0.3183" y="1" relative="1" as="geometry">
            <mxPoint as="offset" />
          </mxGeometry>
        </mxCell>
        <mxCell id="Sj2HHbRkepg-0d2NE3xc-29" value="1..*" style="edgeLabel;html=1;align=center;verticalAlign=middle;resizable=0;points=[];" connectable="0" vertex="1" parent="Sj2HHbRkepg-0d2NE3xc-26">
          <mxGeometry x="0.8978" relative="1" as="geometry">
            <mxPoint x="7" as="offset" />
          </mxGeometry>
        </mxCell>
        <mxCell id="Sj2HHbRkepg-0d2NE3xc-71" style="edgeStyle=orthogonalEdgeStyle;rounded=0;orthogonalLoop=1;jettySize=auto;html=1;exitX=0.5;exitY=0;exitDx=0;exitDy=0;endArrow=block;endFill=0;" edge="1" parent="1" source="Sj2HHbRkepg-0d2NE3xc-50">
          <mxGeometry relative="1" as="geometry">
            <Array as="points">
              <mxPoint x="-420" y="1050" />
              <mxPoint x="-740" y="1050" />
              <mxPoint x="-740" y="329" />
              <mxPoint x="-760" y="329" />
            </Array>
            <mxPoint x="-760" y="329" as="targetPoint" />
          </mxGeometry>
        </mxCell>
        <mxCell id="Sj2HHbRkepg-0d2NE3xc-50" value="CleanRersevation" style="swimlane;fontStyle=1;align=center;verticalAlign=top;childLayout=stackLayout;horizontal=1;startSize=26;horizontalStack=0;resizeParent=1;resizeParentMax=0;resizeLast=0;collapsible=1;marginBottom=0;whiteSpace=wrap;html=1;" vertex="1" parent="1">
          <mxGeometry x="-520" y="1073.17" width="200" height="86" as="geometry" />
        </mxCell>
        <mxCell id="Sj2HHbRkepg-0d2NE3xc-55" value="&amp;nbsp;" style="text;strokeColor=none;fillColor=none;align=left;verticalAlign=top;spacingLeft=4;spacingRight=4;overflow=hidden;rotatable=0;points=[[0,0.5],[1,0.5]];portConstraint=eastwest;whiteSpace=wrap;html=1;" vertex="1" parent="Sj2HHbRkepg-0d2NE3xc-50">
          <mxGeometry y="26" width="200" height="26" as="geometry" />
        </mxCell>
        <mxCell id="Sj2HHbRkepg-0d2NE3xc-56" value="" style="line;strokeWidth=1;fillColor=none;align=left;verticalAlign=middle;spacingTop=-1;spacingLeft=3;spacingRight=3;rotatable=0;labelPosition=right;points=[];portConstraint=eastwest;strokeColor=inherit;" vertex="1" parent="Sj2HHbRkepg-0d2NE3xc-50">
          <mxGeometry y="52" width="200" height="8" as="geometry" />
        </mxCell>
        <mxCell id="Sj2HHbRkepg-0d2NE3xc-57" value="-CallCleaner():void" style="text;strokeColor=none;fillColor=none;align=left;verticalAlign=top;spacingLeft=4;spacingRight=4;overflow=hidden;rotatable=0;points=[[0,0.5],[1,0.5]];portConstraint=eastwest;whiteSpace=wrap;html=1;" vertex="1" parent="Sj2HHbRkepg-0d2NE3xc-50">
          <mxGeometry y="60" width="200" height="26" as="geometry" />
        </mxCell>
        <mxCell id="Sj2HHbRkepg-0d2NE3xc-72" style="edgeStyle=orthogonalEdgeStyle;rounded=0;orthogonalLoop=1;jettySize=auto;html=1;exitX=1;exitY=0.5;exitDx=0;exitDy=0;entryX=0.75;entryY=0;entryDx=0;entryDy=0;endArrow=open;endFill=0;" edge="1" parent="1" source="-Pz-NLWRiqIHyBBIaTiA-3" target="Sj2HHbRkepg-0d2NE3xc-50">
          <mxGeometry relative="1" as="geometry">
            <Array as="points">
              <mxPoint x="710" y="233" />
              <mxPoint x="710" y="1050" />
              <mxPoint x="-370" y="1050" />
            </Array>
          </mxGeometry>
        </mxCell>
        <mxCell id="Sj2HHbRkepg-0d2NE3xc-73" value="Contains" style="edgeLabel;html=1;align=center;verticalAlign=middle;resizable=0;points=[];" connectable="0" vertex="1" parent="Sj2HHbRkepg-0d2NE3xc-72">
          <mxGeometry x="-0.6432" y="-1" relative="1" as="geometry">
            <mxPoint as="offset" />
          </mxGeometry>
        </mxCell>
        <mxCell id="fmxeUPtrMbGE5izU7_tt-56" value="1" style="edgeLabel;html=1;align=center;verticalAlign=middle;resizable=0;points=[];" connectable="0" vertex="1" parent="Sj2HHbRkepg-0d2NE3xc-72">
          <mxGeometry x="-0.9689" relative="1" as="geometry">
            <mxPoint x="1" as="offset" />
          </mxGeometry>
        </mxCell>
        <mxCell id="fmxeUPtrMbGE5izU7_tt-1" value="MaintenanceRersevation" style="swimlane;fontStyle=1;align=center;verticalAlign=top;childLayout=stackLayout;horizontal=1;startSize=26;horizontalStack=0;resizeParent=1;resizeParentMax=0;resizeLast=0;collapsible=1;marginBottom=0;whiteSpace=wrap;html=1;" vertex="1" parent="1">
          <mxGeometry x="-520" y="1194.1200000000001" width="200" height="86" as="geometry" />
        </mxCell>
        <mxCell id="fmxeUPtrMbGE5izU7_tt-2" value="&amp;nbsp;" style="text;strokeColor=none;fillColor=none;align=left;verticalAlign=top;spacingLeft=4;spacingRight=4;overflow=hidden;rotatable=0;points=[[0,0.5],[1,0.5]];portConstraint=eastwest;whiteSpace=wrap;html=1;" vertex="1" parent="fmxeUPtrMbGE5izU7_tt-1">
          <mxGeometry y="26" width="200" height="26" as="geometry" />
        </mxCell>
        <mxCell id="fmxeUPtrMbGE5izU7_tt-3" value="" style="line;strokeWidth=1;fillColor=none;align=left;verticalAlign=middle;spacingTop=-1;spacingLeft=3;spacingRight=3;rotatable=0;labelPosition=right;points=[];portConstraint=eastwest;strokeColor=inherit;" vertex="1" parent="fmxeUPtrMbGE5izU7_tt-1">
          <mxGeometry y="52" width="200" height="8" as="geometry" />
        </mxCell>
        <mxCell id="fmxeUPtrMbGE5izU7_tt-4" value="-CallMaintenancer():void" style="text;strokeColor=none;fillColor=none;align=left;verticalAlign=top;spacingLeft=4;spacingRight=4;overflow=hidden;rotatable=0;points=[[0,0.5],[1,0.5]];portConstraint=eastwest;whiteSpace=wrap;html=1;" vertex="1" parent="fmxeUPtrMbGE5izU7_tt-1">
          <mxGeometry y="60" width="200" height="26" as="geometry" />
        </mxCell>
        <mxCell id="fmxeUPtrMbGE5izU7_tt-5" value="SecurityRersevation" style="swimlane;fontStyle=1;align=center;verticalAlign=top;childLayout=stackLayout;horizontal=1;startSize=26;horizontalStack=0;resizeParent=1;resizeParentMax=0;resizeLast=0;collapsible=1;marginBottom=0;whiteSpace=wrap;html=1;" vertex="1" parent="1">
          <mxGeometry x="-520" y="1323.17" width="200" height="86" as="geometry" />
        </mxCell>
        <mxCell id="fmxeUPtrMbGE5izU7_tt-6" value="&amp;nbsp;" style="text;strokeColor=none;fillColor=none;align=left;verticalAlign=top;spacingLeft=4;spacingRight=4;overflow=hidden;rotatable=0;points=[[0,0.5],[1,0.5]];portConstraint=eastwest;whiteSpace=wrap;html=1;" vertex="1" parent="fmxeUPtrMbGE5izU7_tt-5">
          <mxGeometry y="26" width="200" height="26" as="geometry" />
        </mxCell>
        <mxCell id="fmxeUPtrMbGE5izU7_tt-7" value="" style="line;strokeWidth=1;fillColor=none;align=left;verticalAlign=middle;spacingTop=-1;spacingLeft=3;spacingRight=3;rotatable=0;labelPosition=right;points=[];portConstraint=eastwest;strokeColor=inherit;" vertex="1" parent="fmxeUPtrMbGE5izU7_tt-5">
          <mxGeometry y="52" width="200" height="8" as="geometry" />
        </mxCell>
        <mxCell id="fmxeUPtrMbGE5izU7_tt-8" value="-CallSecurity():void" style="text;strokeColor=none;fillColor=none;align=left;verticalAlign=top;spacingLeft=4;spacingRight=4;overflow=hidden;rotatable=0;points=[[0,0.5],[1,0.5]];portConstraint=eastwest;whiteSpace=wrap;html=1;" vertex="1" parent="fmxeUPtrMbGE5izU7_tt-5">
          <mxGeometry y="60" width="200" height="26" as="geometry" />
        </mxCell>
        <mxCell id="fmxeUPtrMbGE5izU7_tt-9" style="edgeStyle=orthogonalEdgeStyle;rounded=0;orthogonalLoop=1;jettySize=auto;html=1;endArrow=open;endFill=0;" edge="1" parent="1">
          <mxGeometry relative="1" as="geometry">
            <mxPoint x="-320" y="1273.17" as="sourcePoint" />
            <mxPoint x="-347" y="1543.17" as="targetPoint" />
            <Array as="points">
              <mxPoint x="-320" y="1273.17" />
              <mxPoint x="300" y="1273.17" />
              <mxPoint x="300" y="1543.17" />
            </Array>
          </mxGeometry>
        </mxCell>
        <mxCell id="fmxeUPtrMbGE5izU7_tt-10" value="Contains" style="edgeLabel;html=1;align=center;verticalAlign=middle;resizable=0;points=[];" connectable="0" vertex="1" parent="fmxeUPtrMbGE5izU7_tt-9">
          <mxGeometry x="0.0328" y="1" relative="1" as="geometry">
            <mxPoint as="offset" />
          </mxGeometry>
        </mxCell>
        <mxCell id="fmxeUPtrMbGE5izU7_tt-12" value="1" style="edgeLabel;html=1;align=center;verticalAlign=middle;resizable=0;points=[];" connectable="0" vertex="1" parent="fmxeUPtrMbGE5izU7_tt-9">
          <mxGeometry x="0.9245" y="-1" relative="1" as="geometry">
            <mxPoint as="offset" />
          </mxGeometry>
        </mxCell>
        <mxCell id="fmxeUPtrMbGE5izU7_tt-15" value="1" style="edgeLabel;html=1;align=center;verticalAlign=middle;resizable=0;points=[];" connectable="0" vertex="1" parent="fmxeUPtrMbGE5izU7_tt-9">
          <mxGeometry x="-0.9251" relative="1" as="geometry">
            <mxPoint x="-48" as="offset" />
          </mxGeometry>
        </mxCell>
        <mxCell id="fmxeUPtrMbGE5izU7_tt-11" style="edgeStyle=orthogonalEdgeStyle;rounded=0;orthogonalLoop=1;jettySize=auto;html=1;exitX=1;exitY=0.5;exitDx=0;exitDy=0;entryX=1;entryY=0.5;entryDx=0;entryDy=0;endArrow=open;endFill=0;" edge="1" parent="1" source="Sj2HHbRkepg-0d2NE3xc-55" target="vIy7j_pHb_5L0HNnq9O6-70">
          <mxGeometry relative="1" as="geometry">
            <Array as="points">
              <mxPoint x="-320" y="1143.17" />
              <mxPoint x="350" y="1143.17" />
              <mxPoint x="350" y="1577.17" />
            </Array>
          </mxGeometry>
        </mxCell>
        <mxCell id="fmxeUPtrMbGE5izU7_tt-13" value="1" style="edgeLabel;html=1;align=center;verticalAlign=middle;resizable=0;points=[];" connectable="0" vertex="1" parent="fmxeUPtrMbGE5izU7_tt-11">
          <mxGeometry x="0.9286" y="-1" relative="1" as="geometry">
            <mxPoint as="offset" />
          </mxGeometry>
        </mxCell>
        <mxCell id="fmxeUPtrMbGE5izU7_tt-24" value="Contains" style="edgeLabel;html=1;align=center;verticalAlign=middle;resizable=0;points=[];" connectable="0" vertex="1" parent="fmxeUPtrMbGE5izU7_tt-11">
          <mxGeometry x="0.0382" y="2" relative="1" as="geometry">
            <mxPoint y="-1" as="offset" />
          </mxGeometry>
        </mxCell>
        <mxCell id="fmxeUPtrMbGE5izU7_tt-17" style="edgeStyle=orthogonalEdgeStyle;rounded=0;orthogonalLoop=1;jettySize=auto;html=1;entryX=0.002;entryY=0.775;entryDx=0;entryDy=0;exitX=0.186;exitY=1.049;exitDx=0;exitDy=0;exitPerimeter=0;endArrow=open;endFill=0;entryPerimeter=0;" edge="1" parent="1" source="vIy7j_pHb_5L0HNnq9O6-14" target="fmxeUPtrMbGE5izU7_tt-6">
          <mxGeometry relative="1" as="geometry">
            <mxPoint x="-1060" y="230" as="sourcePoint" />
            <Array as="points">
              <mxPoint x="-1070" y="939" />
              <mxPoint x="-880" y="939" />
              <mxPoint x="-880" y="1369" />
            </Array>
          </mxGeometry>
        </mxCell>
        <mxCell id="fmxeUPtrMbGE5izU7_tt-19" value="1" style="edgeLabel;html=1;align=center;verticalAlign=middle;resizable=0;points=[];" connectable="0" vertex="1" parent="fmxeUPtrMbGE5izU7_tt-17">
          <mxGeometry x="-0.9842" y="1" relative="1" as="geometry">
            <mxPoint as="offset" />
          </mxGeometry>
        </mxCell>
        <mxCell id="fmxeUPtrMbGE5izU7_tt-20" value="1..*" style="edgeLabel;html=1;align=center;verticalAlign=middle;resizable=0;points=[];" connectable="0" vertex="1" parent="fmxeUPtrMbGE5izU7_tt-17">
          <mxGeometry x="0.9557" y="-1" relative="1" as="geometry">
            <mxPoint as="offset" />
          </mxGeometry>
        </mxCell>
        <mxCell id="fmxeUPtrMbGE5izU7_tt-21" style="edgeStyle=orthogonalEdgeStyle;rounded=0;orthogonalLoop=1;jettySize=auto;html=1;entryX=0;entryY=0.5;entryDx=0;entryDy=0;endArrow=open;endFill=0;" edge="1" parent="1" source="vIy7j_pHb_5L0HNnq9O6-14" target="fmxeUPtrMbGE5izU7_tt-2">
          <mxGeometry relative="1" as="geometry">
            <Array as="points">
              <mxPoint x="-1040" y="880" />
              <mxPoint x="-840" y="880" />
              <mxPoint x="-840" y="1233" />
            </Array>
          </mxGeometry>
        </mxCell>
        <mxCell id="fmxeUPtrMbGE5izU7_tt-22" value="1" style="edgeLabel;html=1;align=center;verticalAlign=middle;resizable=0;points=[];" connectable="0" vertex="1" parent="fmxeUPtrMbGE5izU7_tt-21">
          <mxGeometry x="-0.9816" y="1" relative="1" as="geometry">
            <mxPoint as="offset" />
          </mxGeometry>
        </mxCell>
        <mxCell id="fmxeUPtrMbGE5izU7_tt-23" value="1..*" style="edgeLabel;html=1;align=center;verticalAlign=middle;resizable=0;points=[];" connectable="0" vertex="1" parent="fmxeUPtrMbGE5izU7_tt-21">
          <mxGeometry x="0.9561" y="1" relative="1" as="geometry">
            <mxPoint as="offset" />
          </mxGeometry>
        </mxCell>
        <mxCell id="fmxeUPtrMbGE5izU7_tt-25" style="edgeStyle=orthogonalEdgeStyle;rounded=0;orthogonalLoop=1;jettySize=auto;html=1;entryX=1;entryY=0.5;entryDx=0;entryDy=0;endArrow=open;endFill=0;" edge="1" parent="1" target="vIy7j_pHb_5L0HNnq9O6-70">
          <mxGeometry relative="1" as="geometry">
            <mxPoint x="-320" y="1143.17" as="sourcePoint" />
            <mxPoint x="-348" y="1577.17" as="targetPoint" />
            <Array as="points">
              <mxPoint x="-320" y="1143.17" />
              <mxPoint x="350" y="1143.17" />
              <mxPoint x="350" y="1577.17" />
            </Array>
          </mxGeometry>
        </mxCell>
        <mxCell id="fmxeUPtrMbGE5izU7_tt-26" value="1" style="edgeLabel;html=1;align=center;verticalAlign=middle;resizable=0;points=[];" connectable="0" vertex="1" parent="fmxeUPtrMbGE5izU7_tt-25">
          <mxGeometry x="0.9286" y="-1" relative="1" as="geometry">
            <mxPoint as="offset" />
          </mxGeometry>
        </mxCell>
        <mxCell id="fmxeUPtrMbGE5izU7_tt-27" value="1" style="edgeLabel;html=1;align=center;verticalAlign=middle;resizable=0;points=[];" connectable="0" vertex="1" parent="fmxeUPtrMbGE5izU7_tt-25">
          <mxGeometry x="-0.9431" y="6" relative="1" as="geometry">
            <mxPoint x="-41" as="offset" />
          </mxGeometry>
        </mxCell>
        <mxCell id="fmxeUPtrMbGE5izU7_tt-57" style="edgeStyle=orthogonalEdgeStyle;rounded=0;orthogonalLoop=1;jettySize=auto;html=1;exitX=0.25;exitY=0;exitDx=0;exitDy=0;entryX=1;entryY=0.5;entryDx=0;entryDy=0;endArrow=block;endFill=0;" edge="1" parent="1" source="fmxeUPtrMbGE5izU7_tt-29" target="vIy7j_pHb_5L0HNnq9O6-2">
          <mxGeometry relative="1" as="geometry">
            <Array as="points">
              <mxPoint x="-260" y="540" />
              <mxPoint x="-580" y="540" />
              <mxPoint x="-580" y="-161" />
            </Array>
          </mxGeometry>
        </mxCell>
        <mxCell id="fmxeUPtrMbGE5izU7_tt-29" value="Security" style="swimlane;fontStyle=1;align=center;verticalAlign=top;childLayout=stackLayout;horizontal=1;startSize=26;horizontalStack=0;resizeParent=1;resizeParentMax=0;resizeLast=0;collapsible=1;marginBottom=0;whiteSpace=wrap;html=1;" vertex="1" parent="1">
          <mxGeometry x="-520" y="558" width="1040" height="86" as="geometry" />
        </mxCell>
        <mxCell id="fmxeUPtrMbGE5izU7_tt-30" value="-&amp;nbsp;FoodDeliverID: Int" style="text;strokeColor=none;fillColor=none;align=left;verticalAlign=top;spacingLeft=4;spacingRight=4;overflow=hidden;rotatable=0;points=[[0,0.5],[1,0.5]];portConstraint=eastwest;whiteSpace=wrap;html=1;" vertex="1" parent="fmxeUPtrMbGE5izU7_tt-29">
          <mxGeometry y="26" width="1040" height="26" as="geometry" />
        </mxCell>
        <mxCell id="fmxeUPtrMbGE5izU7_tt-31" value="" style="line;strokeWidth=1;fillColor=none;align=left;verticalAlign=middle;spacingTop=-1;spacingLeft=3;spacingRight=3;rotatable=0;labelPosition=right;points=[];portConstraint=eastwest;strokeColor=inherit;" vertex="1" parent="fmxeUPtrMbGE5izU7_tt-29">
          <mxGeometry y="52" width="1040" height="8" as="geometry" />
        </mxCell>
        <mxCell id="fmxeUPtrMbGE5izU7_tt-32" value="-&amp;nbsp;Secur(): bool" style="text;strokeColor=none;fillColor=none;align=left;verticalAlign=top;spacingLeft=4;spacingRight=4;overflow=hidden;rotatable=0;points=[[0,0.5],[1,0.5]];portConstraint=eastwest;whiteSpace=wrap;html=1;" vertex="1" parent="fmxeUPtrMbGE5izU7_tt-29">
          <mxGeometry y="60" width="1040" height="26" as="geometry" />
        </mxCell>
        <mxCell id="fmxeUPtrMbGE5izU7_tt-58" style="edgeStyle=orthogonalEdgeStyle;rounded=0;orthogonalLoop=1;jettySize=auto;html=1;exitX=0.25;exitY=0;exitDx=0;exitDy=0;endArrow=block;endFill=0;" edge="1" parent="1" source="fmxeUPtrMbGE5izU7_tt-33" target="vIy7j_pHb_5L0HNnq9O6-2">
          <mxGeometry relative="1" as="geometry">
            <Array as="points">
              <mxPoint x="-260" y="660" />
              <mxPoint x="-580" y="660" />
              <mxPoint x="-580" y="-161" />
            </Array>
          </mxGeometry>
        </mxCell>
        <mxCell id="fmxeUPtrMbGE5izU7_tt-33" value="Manager" style="swimlane;fontStyle=1;align=center;verticalAlign=top;childLayout=stackLayout;horizontal=1;startSize=26;horizontalStack=0;resizeParent=1;resizeParentMax=0;resizeLast=0;collapsible=1;marginBottom=0;whiteSpace=wrap;html=1;" vertex="1" parent="1">
          <mxGeometry x="-520" y="680" width="1040" height="138" as="geometry" />
        </mxCell>
        <mxCell id="fmxeUPtrMbGE5izU7_tt-34" value="-&amp;nbsp;ManagerID: Int" style="text;strokeColor=none;fillColor=none;align=left;verticalAlign=top;spacingLeft=4;spacingRight=4;overflow=hidden;rotatable=0;points=[[0,0.5],[1,0.5]];portConstraint=eastwest;whiteSpace=wrap;html=1;" vertex="1" parent="fmxeUPtrMbGE5izU7_tt-33">
          <mxGeometry y="26" width="1040" height="26" as="geometry" />
        </mxCell>
        <mxCell id="fmxeUPtrMbGE5izU7_tt-35" value="" style="line;strokeWidth=1;fillColor=none;align=left;verticalAlign=middle;spacingTop=-1;spacingLeft=3;spacingRight=3;rotatable=0;labelPosition=right;points=[];portConstraint=eastwest;strokeColor=inherit;" vertex="1" parent="fmxeUPtrMbGE5izU7_tt-33">
          <mxGeometry y="52" width="1040" height="8" as="geometry" />
        </mxCell>
        <mxCell id="fmxeUPtrMbGE5izU7_tt-36" value="- AssignCleaner(Cleaner: _Cleaner): void" style="text;strokeColor=none;fillColor=none;align=left;verticalAlign=top;spacingLeft=4;spacingRight=4;overflow=hidden;rotatable=0;points=[[0,0.5],[1,0.5]];portConstraint=eastwest;whiteSpace=wrap;html=1;" vertex="1" parent="fmxeUPtrMbGE5izU7_tt-33">
          <mxGeometry y="60" width="1040" height="26" as="geometry" />
        </mxCell>
        <mxCell id="fmxeUPtrMbGE5izU7_tt-37" value="- AssignMaintancer(Maintancer: _Maintancer): void" style="text;strokeColor=none;fillColor=none;align=left;verticalAlign=top;spacingLeft=4;spacingRight=4;overflow=hidden;rotatable=0;points=[[0,0.5],[1,0.5]];portConstraint=eastwest;whiteSpace=wrap;html=1;" vertex="1" parent="fmxeUPtrMbGE5izU7_tt-33">
          <mxGeometry y="86" width="1040" height="26" as="geometry" />
        </mxCell>
        <mxCell id="fmxeUPtrMbGE5izU7_tt-38" value="- AssignSecurity(Security: _Security): void" style="text;strokeColor=none;fillColor=none;align=left;verticalAlign=top;spacingLeft=4;spacingRight=4;overflow=hidden;rotatable=0;points=[[0,0.5],[1,0.5]];portConstraint=eastwest;whiteSpace=wrap;html=1;" vertex="1" parent="fmxeUPtrMbGE5izU7_tt-33">
          <mxGeometry y="112" width="1040" height="26" as="geometry" />
        </mxCell>
        <mxCell id="fmxeUPtrMbGE5izU7_tt-39" style="edgeStyle=orthogonalEdgeStyle;rounded=0;orthogonalLoop=1;jettySize=auto;html=1;exitX=1;exitY=0.5;exitDx=0;exitDy=0;entryX=0.001;entryY=0.777;entryDx=0;entryDy=0;entryPerimeter=0;" edge="1" parent="1">
          <mxGeometry relative="1" as="geometry">
            <mxPoint x="-940" y="200" as="sourcePoint" />
            <mxPoint x="-518.96" y="593.2020000000002" as="targetPoint" />
            <Array as="points">
              <mxPoint x="-640" y="200" />
              <mxPoint x="-640" y="593" />
            </Array>
          </mxGeometry>
        </mxCell>
        <mxCell id="fmxeUPtrMbGE5izU7_tt-41" value="Have" style="edgeLabel;html=1;align=center;verticalAlign=middle;resizable=0;points=[];" connectable="0" vertex="1" parent="fmxeUPtrMbGE5izU7_tt-39">
          <mxGeometry x="-0.4291" relative="1" as="geometry">
            <mxPoint as="offset" />
          </mxGeometry>
        </mxCell>
        <mxCell id="fmxeUPtrMbGE5izU7_tt-43" value="1..*" style="edgeLabel;html=1;align=center;verticalAlign=middle;resizable=0;points=[];" connectable="0" vertex="1" parent="fmxeUPtrMbGE5izU7_tt-39">
          <mxGeometry x="-0.9508" relative="1" as="geometry">
            <mxPoint as="offset" />
          </mxGeometry>
        </mxCell>
        <mxCell id="fmxeUPtrMbGE5izU7_tt-45" value="1..*" style="edgeLabel;html=1;align=center;verticalAlign=middle;resizable=0;points=[];" connectable="0" vertex="1" parent="fmxeUPtrMbGE5izU7_tt-39">
          <mxGeometry x="0.9081" relative="1" as="geometry">
            <mxPoint as="offset" />
          </mxGeometry>
        </mxCell>
        <mxCell id="fmxeUPtrMbGE5izU7_tt-40" style="edgeStyle=orthogonalEdgeStyle;rounded=0;orthogonalLoop=1;jettySize=auto;html=1;exitX=1;exitY=0.5;exitDx=0;exitDy=0;entryX=0;entryY=0.5;entryDx=0;entryDy=0;" edge="1" parent="1" source="vIy7j_pHb_5L0HNnq9O6-14" target="fmxeUPtrMbGE5izU7_tt-37">
          <mxGeometry relative="1" as="geometry">
            <Array as="points">
              <mxPoint x="-680" y="211" />
              <mxPoint x="-680" y="779" />
            </Array>
          </mxGeometry>
        </mxCell>
        <mxCell id="fmxeUPtrMbGE5izU7_tt-42" value="Have" style="edgeLabel;html=1;align=center;verticalAlign=middle;resizable=0;points=[];" connectable="0" vertex="1" parent="fmxeUPtrMbGE5izU7_tt-40">
          <mxGeometry x="-0.7189" relative="1" as="geometry">
            <mxPoint as="offset" />
          </mxGeometry>
        </mxCell>
        <mxCell id="fmxeUPtrMbGE5izU7_tt-44" value="1..*" style="edgeLabel;html=1;align=center;verticalAlign=middle;resizable=0;points=[];" connectable="0" vertex="1" parent="fmxeUPtrMbGE5izU7_tt-40">
          <mxGeometry x="-0.9117" y="-1" relative="1" as="geometry">
            <mxPoint as="offset" />
          </mxGeometry>
        </mxCell>
        <mxCell id="fmxeUPtrMbGE5izU7_tt-46" value="1..*" style="edgeLabel;html=1;align=center;verticalAlign=middle;resizable=0;points=[];" connectable="0" vertex="1" parent="fmxeUPtrMbGE5izU7_tt-40">
          <mxGeometry x="0.9159" y="1" relative="1" as="geometry">
            <mxPoint as="offset" />
          </mxGeometry>
        </mxCell>
        <mxCell id="fmxeUPtrMbGE5izU7_tt-47" style="edgeStyle=orthogonalEdgeStyle;rounded=0;orthogonalLoop=1;jettySize=auto;html=1;exitX=1;exitY=0.5;exitDx=0;exitDy=0;entryX=1;entryY=0.5;entryDx=0;entryDy=0;endArrow=open;endFill=0;" edge="1" parent="1" source="-Pz-NLWRiqIHyBBIaTiA-2" target="fmxeUPtrMbGE5izU7_tt-2">
          <mxGeometry relative="1" as="geometry">
            <Array as="points">
              <mxPoint x="770" y="207" />
              <mxPoint x="770" y="1233" />
            </Array>
          </mxGeometry>
        </mxCell>
        <mxCell id="fmxeUPtrMbGE5izU7_tt-49" value="1..*" style="edgeLabel;html=1;align=center;verticalAlign=middle;resizable=0;points=[];" connectable="0" vertex="1" parent="fmxeUPtrMbGE5izU7_tt-47">
          <mxGeometry x="0.954" relative="1" as="geometry">
            <mxPoint as="offset" />
          </mxGeometry>
        </mxCell>
        <mxCell id="fmxeUPtrMbGE5izU7_tt-51" value="contains" style="edgeLabel;html=1;align=center;verticalAlign=middle;resizable=0;points=[];" connectable="0" vertex="1" parent="fmxeUPtrMbGE5izU7_tt-47">
          <mxGeometry x="-0.5686" y="3" relative="1" as="geometry">
            <mxPoint as="offset" />
          </mxGeometry>
        </mxCell>
        <mxCell id="fmxeUPtrMbGE5izU7_tt-55" value="1" style="edgeLabel;html=1;align=center;verticalAlign=middle;resizable=0;points=[];" connectable="0" vertex="1" parent="fmxeUPtrMbGE5izU7_tt-47">
          <mxGeometry x="-0.9774" y="3" relative="1" as="geometry">
            <mxPoint x="1" as="offset" />
          </mxGeometry>
        </mxCell>
        <mxCell id="fmxeUPtrMbGE5izU7_tt-48" style="edgeStyle=orthogonalEdgeStyle;rounded=0;orthogonalLoop=1;jettySize=auto;html=1;exitX=1;exitY=0.5;exitDx=0;exitDy=0;entryX=1;entryY=0.5;entryDx=0;entryDy=0;endArrow=open;endFill=0;" edge="1" parent="1" source="vIy7j_pHb_5L0HNnq9O6-24" target="fmxeUPtrMbGE5izU7_tt-6">
          <mxGeometry relative="1" as="geometry">
            <Array as="points">
              <mxPoint x="810" y="147" />
              <mxPoint x="810" y="1362" />
            </Array>
          </mxGeometry>
        </mxCell>
        <mxCell id="fmxeUPtrMbGE5izU7_tt-50" value="1..*" style="edgeLabel;html=1;align=center;verticalAlign=middle;resizable=0;points=[];" connectable="0" vertex="1" parent="fmxeUPtrMbGE5izU7_tt-48">
          <mxGeometry x="0.9587" relative="1" as="geometry">
            <mxPoint as="offset" />
          </mxGeometry>
        </mxCell>
        <mxCell id="fmxeUPtrMbGE5izU7_tt-52" value="contains" style="edgeLabel;html=1;align=center;verticalAlign=middle;resizable=0;points=[];" connectable="0" vertex="1" parent="fmxeUPtrMbGE5izU7_tt-48">
          <mxGeometry x="-0.6022" relative="1" as="geometry">
            <mxPoint as="offset" />
          </mxGeometry>
        </mxCell>
        <mxCell id="fmxeUPtrMbGE5izU7_tt-53" value="1." style="edgeLabel;html=1;align=center;verticalAlign=middle;resizable=0;points=[];" connectable="0" vertex="1" parent="fmxeUPtrMbGE5izU7_tt-48">
          <mxGeometry x="-0.9821" y="3" relative="1" as="geometry">
            <mxPoint x="1" as="offset" />
          </mxGeometry>
        </mxCell>
      </root>
    </mxGraphModel>
  </diagram>
</mxfile>
